<svg width="455" height="328" viewBox="0 0 455 328" fill="none" xmlns="http://www.w3.org/2000/svg">
<g clip-path="url(#clip0_1_4)">
<path d="M453.408 325.485H0.656101C0.482076 325.485 0.315178 325.415 0.192124 325.292C0.0690696 325.169 -6.10352e-05 325.002 -6.10352e-05 324.828C-6.10352e-05 324.654 0.0690696 324.487 0.192124 324.364C0.315178 324.241 0.482076 324.172 0.656101 324.172H453.408C453.582 324.172 453.749 324.241 453.872 324.364C453.995 324.487 454.064 324.654 454.064 324.828C454.064 325.002 453.995 325.169 453.872 325.292C453.749 325.415 453.582 325.485 453.408 325.485Z" fill="#CCCCCC"/>
<path d="M408.595 211.049H142.193C141.062 211.049 139.977 211.498 139.177 212.298C138.378 213.098 137.928 214.183 137.928 215.314C137.928 216.445 138.378 217.53 139.177 218.33C139.977 219.129 141.062 219.579 142.193 219.579H149.739V321.612C149.739 322.743 150.188 323.828 150.988 324.628C151.788 325.428 152.873 325.877 154.004 325.877C155.135 325.877 156.22 325.428 157.02 324.628C157.82 323.828 158.269 322.743 158.269 321.612L158.334 219.579H391.863V321.612C391.863 322.743 392.312 323.828 393.112 324.628C393.912 325.428 394.997 325.877 396.128 325.877C397.259 325.877 398.344 325.428 399.144 324.628C399.944 323.828 400.393 322.743 400.393 321.612V221.828L401.634 219.579H408.595C409.726 219.579 410.811 219.129 411.611 218.33C412.411 217.53 412.86 216.445 412.86 215.314C412.86 214.183 412.411 213.098 411.611 212.298C410.811 211.498 409.726 211.049 408.595 211.049Z" fill="#CCCCCC"/>
<path d="M289.888 213.281H209.192C207.63 213.279 206.132 212.658 205.027 211.553C203.922 210.448 203.301 208.95 203.299 207.387V162.959C203.301 161.397 203.922 159.899 205.027 158.794C206.132 157.689 207.63 157.068 209.192 157.066H289.888C291.451 157.068 292.949 157.689 294.054 158.794C295.159 159.899 295.78 161.397 295.782 162.959V207.387C295.78 208.95 295.159 210.448 294.054 211.553C292.949 212.658 291.451 213.279 289.888 213.281Z" fill="#3F3D56"/>
<path d="M289.888 161.602H209.193C208.833 161.602 208.488 161.746 208.233 162C207.979 162.255 207.836 162.6 207.835 162.96V207.388C207.836 207.748 207.979 208.093 208.233 208.348C208.488 208.603 208.833 208.746 209.193 208.747H289.888C290.248 208.746 290.593 208.603 290.848 208.348C291.102 208.093 291.245 207.748 291.246 207.388V162.96C291.245 162.6 291.102 162.255 290.848 162C290.593 161.746 290.248 161.602 289.888 161.602Z" fill="white"/>
<path d="M256.423 193.057C256.423 193.057 246.763 190.831 241.45 194.912C236.136 198.993 248.212 208.268 248.212 208.268L256.423 193.057Z" fill="#2F2E41"/>
<path d="M250.014 188.851C255.046 188.851 259.126 184.771 259.126 179.739C259.126 174.706 255.046 170.627 250.014 170.627C244.981 170.627 240.901 174.706 240.901 179.739C240.901 184.771 244.981 188.851 250.014 188.851Z" fill="#A0616A"/>
<path d="M242.967 166.947C243.575 165.916 244.456 165.073 245.513 164.51C246.569 163.948 247.761 163.689 248.956 163.761C250.206 163.918 251.425 164.259 252.575 164.774L258.532 167.098C260.073 167.699 261.761 168.436 262.43 169.949C263.051 171.353 262.588 172.976 262.119 174.438L259.89 181.389C259.643 179.816 259.22 178.275 258.627 176.797C258.025 175.309 256.937 174.069 255.54 173.278C253.993 172.484 252.169 172.5 250.432 172.584C247.972 172.702 245.298 173.015 243.55 174.75C242.622 175.736 241.993 176.964 241.736 178.293C241.483 179.615 241.355 180.958 241.355 182.303C240.346 180.569 239.497 178.748 238.816 176.86C238.257 175.455 237.938 173.965 237.873 172.454C237.815 170.93 238.32 169.438 239.293 168.263C239.787 167.689 240.432 167.265 241.154 167.037C241.876 166.81 242.648 166.789 243.382 166.977L242.967 166.947Z" fill="#2F2E41"/>
<path d="M271.771 200.958C271.686 200.65 271.511 200.375 271.269 200.166C271.028 199.957 270.73 199.824 270.413 199.784C270.392 199.769 270.37 199.756 270.347 199.744L256.744 192.121C256.356 191.903 255.898 191.844 255.467 191.955C255.036 192.066 254.664 192.339 254.429 192.717L250.709 198.74L245.105 193.137L245.016 193.048C244.728 192.76 244.349 192.583 243.943 192.548C243.538 192.512 243.134 192.621 242.8 192.854L231.621 200.683C231.601 200.683 231.581 200.689 231.562 200.689C231.027 200.778 230.538 201.047 230.176 201.452C229.815 201.856 229.602 202.372 229.573 202.913L229.285 208.747H273.93L271.771 200.958Z" fill="#6C63FF"/>
<path d="M296.689 207.841H288.075C288.075 207.6 287.979 207.37 287.809 207.2C287.639 207.029 287.409 206.934 287.168 206.934H284.448C284.208 206.934 283.977 207.029 283.807 207.2C283.637 207.37 283.542 207.6 283.542 207.841H280.821C280.821 207.6 280.726 207.37 280.556 207.2C280.386 207.029 280.155 206.934 279.915 206.934H277.195C276.954 206.934 276.724 207.029 276.554 207.2C276.383 207.37 276.288 207.6 276.288 207.841H273.568C273.568 207.6 273.472 207.37 273.302 207.2C273.132 207.029 272.902 206.934 272.661 206.934H269.941C269.701 206.934 269.47 207.029 269.3 207.2C269.13 207.37 269.034 207.6 269.034 207.841H266.314C266.314 207.6 266.219 207.37 266.049 207.2C265.879 207.029 265.648 206.934 265.408 206.934H262.688C262.447 206.934 262.216 207.029 262.046 207.2C261.876 207.37 261.781 207.6 261.781 207.841H259.061C259.061 207.6 258.965 207.37 258.795 207.2C258.625 207.029 258.395 206.934 258.154 206.934H255.434C255.193 206.934 254.963 207.029 254.793 207.2C254.623 207.37 254.527 207.6 254.527 207.841H251.807C251.807 207.6 251.712 207.37 251.542 207.2C251.372 207.029 251.141 206.934 250.9 206.934H248.18C247.94 206.934 247.709 207.029 247.539 207.2C247.369 207.37 247.274 207.6 247.274 207.841H244.554C244.554 207.6 244.458 207.37 244.288 207.2C244.118 207.029 243.887 206.934 243.647 206.934H240.927C240.686 206.934 240.456 207.029 240.286 207.2C240.116 207.37 240.02 207.6 240.02 207.841H237.3C237.3 207.6 237.204 207.37 237.034 207.2C236.864 207.029 236.634 206.934 236.393 206.934H233.673C233.433 206.934 233.202 207.029 233.032 207.2C232.862 207.37 232.767 207.6 232.767 207.841H230.046C230.046 207.6 229.951 207.37 229.781 207.2C229.611 207.029 229.38 206.934 229.14 206.934H226.42C226.179 206.934 225.949 207.029 225.779 207.2C225.609 207.37 225.513 207.6 225.513 207.841H222.793C222.793 207.6 222.697 207.37 222.527 207.2C222.357 207.029 222.127 206.934 221.886 206.934H219.166C218.926 206.934 218.695 207.029 218.525 207.2C218.355 207.37 218.259 207.6 218.259 207.841H215.539C215.539 207.6 215.444 207.37 215.274 207.2C215.104 207.029 214.873 206.934 214.633 206.934H211.913C211.672 206.934 211.441 207.029 211.271 207.2C211.101 207.37 211.006 207.6 211.006 207.841H202.392C201.672 207.842 200.981 208.129 200.472 208.639C199.962 209.149 199.676 209.84 199.676 210.561C199.676 211.281 199.962 211.973 200.472 212.483C200.981 212.993 201.672 213.28 202.392 213.281H296.689C297.41 213.281 298.102 212.994 298.612 212.484C299.122 211.974 299.409 211.282 299.409 210.561C299.409 209.839 299.122 209.147 298.612 208.637C298.102 208.127 297.41 207.841 296.689 207.841Z" fill="#3F3D56"/>
<path d="M188.37 192.044V210.106H143.12C141.908 210.148 140.699 209.945 139.567 209.511C138.434 209.076 137.401 208.417 136.528 207.575C135.656 206.732 134.962 205.722 134.488 204.605C134.014 203.489 133.77 202.288 133.77 201.075C133.77 199.862 134.014 198.661 134.488 197.544C134.962 196.428 135.656 195.418 136.528 194.575C137.401 193.732 138.434 193.074 139.567 192.639C140.699 192.204 141.908 192.002 143.12 192.044H188.37Z" fill="#F2F2F2"/>
<path d="M189.482 209.967C189.482 210.151 189.409 210.328 189.278 210.458C189.148 210.588 188.971 210.661 188.787 210.661H142.314C139.79 210.661 137.369 209.659 135.585 207.874C133.8 206.089 132.797 203.669 132.797 201.144C132.797 198.62 133.8 196.2 135.585 194.415C137.369 192.63 139.79 191.628 142.314 191.628H188.787C188.971 191.628 189.148 191.701 189.278 191.831C189.409 191.961 189.482 192.138 189.482 192.322C189.482 192.506 189.409 192.683 189.278 192.813C189.148 192.944 188.971 193.017 188.787 193.017H142.314C140.16 193.019 138.094 193.876 136.572 195.4C135.049 196.924 134.194 198.99 134.194 201.144C134.194 203.299 135.049 205.365 136.572 206.889C138.094 208.413 140.16 209.27 142.314 209.272H188.787C188.971 209.272 189.148 209.345 189.278 209.476C189.409 209.606 189.482 209.783 189.482 209.967Z" fill="#6C63FF"/>
<path d="M188.37 196.212H139.744C139.725 196.212 139.707 196.209 139.69 196.202C139.673 196.195 139.658 196.185 139.645 196.172C139.632 196.159 139.622 196.144 139.615 196.127C139.608 196.11 139.604 196.092 139.604 196.073C139.604 196.055 139.608 196.037 139.615 196.02C139.622 196.003 139.632 195.988 139.645 195.975C139.658 195.962 139.673 195.952 139.69 195.945C139.707 195.938 139.725 195.934 139.744 195.934H188.37C188.407 195.935 188.442 195.949 188.468 195.976C188.494 196.002 188.508 196.037 188.508 196.073C188.508 196.11 188.494 196.145 188.468 196.171C188.442 196.197 188.407 196.212 188.37 196.212Z" fill="#CCCCCC"/>
<path d="M188.37 199.547H139.744C139.725 199.547 139.707 199.543 139.69 199.536C139.673 199.529 139.658 199.519 139.645 199.506C139.632 199.493 139.622 199.478 139.615 199.461C139.608 199.444 139.604 199.426 139.604 199.408C139.604 199.389 139.608 199.371 139.615 199.354C139.622 199.337 139.632 199.322 139.645 199.309C139.658 199.296 139.673 199.286 139.69 199.279C139.707 199.272 139.725 199.269 139.744 199.269H188.37C188.407 199.269 188.442 199.284 188.468 199.31C188.494 199.336 188.508 199.371 188.508 199.408C188.508 199.444 188.494 199.48 188.468 199.506C188.442 199.532 188.407 199.546 188.37 199.547Z" fill="#CCCCCC"/>
<path d="M188.37 202.881H139.744C139.725 202.881 139.707 202.878 139.69 202.871C139.673 202.864 139.658 202.854 139.645 202.841C139.632 202.828 139.622 202.812 139.615 202.796C139.608 202.779 139.604 202.76 139.604 202.742C139.604 202.724 139.608 202.706 139.615 202.689C139.622 202.672 139.632 202.656 139.645 202.644C139.658 202.631 139.673 202.62 139.69 202.614C139.707 202.607 139.725 202.603 139.744 202.603H188.37C188.407 202.603 188.442 202.618 188.468 202.644C188.494 202.67 188.508 202.705 188.508 202.742C188.508 202.779 188.494 202.814 188.468 202.84C188.442 202.866 188.407 202.881 188.37 202.881Z" fill="#CCCCCC"/>
<path d="M188.37 206.215H139.744C139.725 206.216 139.707 206.212 139.69 206.205C139.673 206.198 139.658 206.188 139.645 206.175C139.632 206.162 139.622 206.147 139.615 206.13C139.608 206.113 139.604 206.095 139.604 206.076C139.604 206.058 139.608 206.04 139.615 206.023C139.622 206.006 139.632 205.991 139.645 205.978C139.658 205.965 139.673 205.955 139.69 205.948C139.707 205.941 139.725 205.937 139.744 205.938H188.37C188.407 205.938 188.442 205.953 188.468 205.979C188.494 206.005 188.508 206.04 188.508 206.076C188.508 206.113 188.494 206.148 188.468 206.174C188.442 206.2 188.407 206.215 188.37 206.215Z" fill="#CCCCCC"/>
<path d="M179.84 173.016V191.077H134.59C133.377 191.119 132.169 190.917 131.036 190.482C129.904 190.047 128.871 189.389 127.998 188.546C127.126 187.703 126.432 186.693 125.958 185.577C125.484 184.46 125.239 183.259 125.239 182.046C125.239 180.833 125.484 179.632 125.958 178.516C126.432 177.399 127.126 176.389 127.998 175.547C128.871 174.704 129.904 174.045 131.036 173.611C132.169 173.176 133.377 172.973 134.59 173.016H179.84Z" fill="#F2F2F2"/>
<path d="M180.952 190.938C180.952 191.122 180.878 191.299 180.748 191.429C180.618 191.559 180.441 191.633 180.257 191.633H133.784C132.534 191.633 131.296 191.387 130.142 190.908C128.987 190.43 127.938 189.729 127.054 188.845C126.171 187.962 125.47 186.912 124.991 185.758C124.513 184.603 124.267 183.366 124.267 182.116C124.267 180.866 124.513 179.628 124.991 178.474C125.47 177.319 126.171 176.27 127.054 175.386C127.938 174.503 128.987 173.802 130.142 173.323C131.296 172.845 132.534 172.599 133.784 172.599H180.257C180.441 172.599 180.618 172.672 180.748 172.802C180.878 172.933 180.952 173.109 180.952 173.293C180.952 173.478 180.878 173.654 180.748 173.785C180.618 173.915 180.441 173.988 180.257 173.988H133.784C131.629 173.99 129.564 174.847 128.041 176.371C126.519 177.895 125.663 179.961 125.663 182.116C125.663 184.27 126.519 186.336 128.041 187.86C129.564 189.384 131.629 190.241 133.784 190.243H180.257C180.441 190.243 180.618 190.317 180.748 190.447C180.878 190.577 180.952 190.754 180.952 190.938Z" fill="#3F3D56"/>
<path d="M179.84 177.184H131.214C131.195 177.184 131.177 177.18 131.16 177.173C131.143 177.166 131.128 177.156 131.115 177.143C131.102 177.13 131.091 177.115 131.084 177.098C131.077 177.081 131.074 177.063 131.074 177.045C131.074 177.026 131.077 177.008 131.084 176.991C131.091 176.974 131.102 176.959 131.115 176.946C131.128 176.933 131.143 176.923 131.16 176.916C131.177 176.909 131.195 176.906 131.214 176.906H179.84C179.877 176.906 179.912 176.921 179.938 176.947C179.964 176.973 179.978 177.008 179.978 177.045C179.978 177.081 179.964 177.117 179.938 177.143C179.912 177.169 179.877 177.183 179.84 177.184Z" fill="#CCCCCC"/>
<path d="M179.84 180.518H131.214C131.195 180.518 131.177 180.515 131.16 180.508C131.143 180.501 131.128 180.491 131.115 180.478C131.102 180.465 131.091 180.449 131.084 180.433C131.077 180.416 131.074 180.397 131.074 180.379C131.074 180.361 131.077 180.343 131.084 180.326C131.091 180.309 131.102 180.294 131.115 180.281C131.128 180.268 131.143 180.257 131.16 180.251C131.177 180.244 131.195 180.24 131.214 180.24H179.84C179.877 180.24 179.912 180.255 179.938 180.281C179.964 180.307 179.978 180.342 179.978 180.379C179.978 180.416 179.964 180.451 179.938 180.477C179.912 180.503 179.877 180.518 179.84 180.518Z" fill="#CCCCCC"/>
<path d="M179.84 183.852H131.214C131.195 183.853 131.177 183.849 131.16 183.842C131.143 183.835 131.128 183.825 131.115 183.812C131.102 183.799 131.091 183.784 131.084 183.767C131.077 183.75 131.074 183.732 131.074 183.714C131.074 183.695 131.077 183.677 131.084 183.66C131.091 183.643 131.102 183.628 131.115 183.615C131.128 183.602 131.143 183.592 131.16 183.585C131.177 183.578 131.195 183.574 131.214 183.575H179.84C179.877 183.575 179.912 183.59 179.938 183.616C179.964 183.642 179.978 183.677 179.978 183.714C179.978 183.75 179.964 183.785 179.938 183.811C179.912 183.837 179.877 183.852 179.84 183.852Z" fill="#CCCCCC"/>
<path d="M179.84 187.187H131.214C131.195 187.187 131.177 187.183 131.16 187.176C131.143 187.17 131.128 187.159 131.115 187.146C131.102 187.134 131.091 187.118 131.084 187.101C131.077 187.084 131.074 187.066 131.074 187.048C131.074 187.03 131.077 187.011 131.084 186.994C131.091 186.978 131.102 186.962 131.115 186.949C131.128 186.936 131.143 186.926 131.16 186.919C131.177 186.912 131.195 186.909 131.214 186.909H179.84C179.877 186.909 179.912 186.924 179.938 186.95C179.964 186.976 179.978 187.011 179.978 187.048C179.978 187.085 179.964 187.12 179.938 187.146C179.912 187.172 179.877 187.187 179.84 187.187Z" fill="#CCCCCC"/>
<path d="M232.48 274.304V258.556C232.48 257.86 232.204 257.192 231.711 256.7C231.219 256.208 230.552 255.931 229.856 255.931H170.145C169.449 255.931 168.781 256.208 168.289 256.7C167.797 257.192 167.52 257.86 167.52 258.556V274.304H232.48Z" fill="#CCCCCC"/>
<path d="M232.48 280.209H167.52V300.55H232.48V280.209Z" fill="#CCCCCC"/>
<path d="M167.52 306.456V322.204C167.52 322.9 167.797 323.567 168.289 324.06C168.781 324.552 169.449 324.828 170.145 324.828H229.856C230.552 324.828 231.219 324.552 231.711 324.06C232.204 323.567 232.48 322.9 232.48 322.204V306.456H167.52Z" fill="#CCCCCC"/>
<path d="M199.672 267.742C200.759 267.742 201.641 266.861 201.641 265.774C201.641 264.687 200.759 263.805 199.672 263.805C198.585 263.805 197.704 264.687 197.704 265.774C197.704 266.861 198.585 267.742 199.672 267.742Z" fill="white"/>
<path d="M199.672 293.989C200.759 293.989 201.641 293.107 201.641 292.02C201.641 290.933 200.759 290.052 199.672 290.052C198.585 290.052 197.704 290.933 197.704 292.02C197.704 293.107 198.585 293.989 199.672 293.989Z" fill="white"/>
<path d="M199.778 319.679C200.865 319.679 201.746 318.798 201.746 317.711C201.746 316.624 200.865 315.742 199.778 315.742C198.69 315.742 197.809 316.624 197.809 317.711C197.809 318.798 198.69 319.679 199.778 319.679Z" fill="white"/>
<path d="M225.115 237.976V256.037H179.865C178.653 256.079 177.444 255.877 176.312 255.442C175.179 255.007 174.146 254.349 173.273 253.506C172.401 252.663 171.707 251.653 171.233 250.537C170.759 249.42 170.515 248.219 170.515 247.006C170.515 245.793 170.759 244.593 171.233 243.476C171.707 242.359 172.401 241.349 173.273 240.507C174.146 239.664 175.179 239.005 176.312 238.571C177.444 238.136 178.653 237.933 179.865 237.976H225.115Z" fill="#F2F2F2"/>
<path d="M226.227 255.898C226.227 256.082 226.154 256.259 226.023 256.389C225.893 256.519 225.717 256.593 225.532 256.593H179.059C177.809 256.594 176.57 256.348 175.415 255.871C174.259 255.393 173.209 254.692 172.325 253.808C171.44 252.924 170.738 251.875 170.259 250.72C169.781 249.564 169.534 248.326 169.534 247.076C169.534 245.825 169.781 244.587 170.259 243.432C170.738 242.277 171.44 241.227 172.325 240.343C173.209 239.46 174.259 238.759 175.415 238.281C176.57 237.803 177.809 237.558 179.059 237.559H225.532C225.717 237.559 225.893 237.632 226.023 237.762C226.154 237.893 226.227 238.069 226.227 238.253C226.227 238.438 226.154 238.614 226.023 238.745C225.893 238.875 225.717 238.948 225.532 238.948H179.059C176.905 238.95 174.839 239.807 173.317 241.331C171.794 242.855 170.939 244.921 170.939 247.076C170.939 249.23 171.794 251.296 173.317 252.82C174.839 254.344 176.905 255.201 179.059 255.203H225.532C225.717 255.203 225.893 255.277 226.023 255.407C226.154 255.537 226.227 255.714 226.227 255.898Z" fill="#3F3D56"/>
<path d="M225.115 242.144H176.489C176.47 242.144 176.452 242.14 176.435 242.133C176.418 242.126 176.403 242.116 176.39 242.103C176.377 242.09 176.367 242.075 176.359 242.058C176.352 242.041 176.349 242.023 176.349 242.005C176.349 241.986 176.352 241.968 176.359 241.951C176.367 241.934 176.377 241.919 176.39 241.906C176.403 241.893 176.418 241.883 176.435 241.876C176.452 241.869 176.47 241.866 176.489 241.866H225.115C225.152 241.866 225.187 241.881 225.213 241.907C225.239 241.933 225.253 241.968 225.253 242.005C225.253 242.041 225.239 242.077 225.213 242.103C225.187 242.129 225.152 242.143 225.115 242.144Z" fill="#CCCCCC"/>
<path d="M225.115 245.478H176.489C176.47 245.478 176.452 245.475 176.435 245.468C176.418 245.461 176.403 245.451 176.39 245.438C176.377 245.425 176.367 245.409 176.359 245.393C176.352 245.376 176.349 245.357 176.349 245.339C176.349 245.321 176.352 245.303 176.359 245.286C176.367 245.269 176.377 245.253 176.39 245.241C176.403 245.228 176.418 245.217 176.435 245.211C176.452 245.204 176.47 245.2 176.489 245.2H225.115C225.152 245.2 225.187 245.215 225.213 245.241C225.239 245.267 225.253 245.302 225.253 245.339C225.253 245.376 225.239 245.411 225.213 245.437C225.187 245.463 225.152 245.478 225.115 245.478Z" fill="#CCCCCC"/>
<path d="M225.115 248.812H176.489C176.47 248.813 176.452 248.809 176.435 248.802C176.418 248.795 176.403 248.785 176.39 248.772C176.377 248.759 176.367 248.744 176.359 248.727C176.352 248.71 176.349 248.692 176.349 248.674C176.349 248.655 176.352 248.637 176.359 248.62C176.367 248.603 176.377 248.588 176.39 248.575C176.403 248.562 176.418 248.552 176.435 248.545C176.452 248.538 176.47 248.534 176.489 248.535H225.115C225.152 248.535 225.187 248.55 225.213 248.576C225.239 248.602 225.253 248.637 225.253 248.674C225.253 248.71 225.239 248.745 225.213 248.771C225.187 248.797 225.152 248.812 225.115 248.812Z" fill="#CCCCCC"/>
<path d="M225.115 252.147H176.489C176.47 252.147 176.452 252.143 176.435 252.137C176.418 252.13 176.403 252.119 176.39 252.106C176.377 252.094 176.367 252.078 176.359 252.061C176.352 252.044 176.349 252.026 176.349 252.008C176.349 251.99 176.352 251.971 176.359 251.954C176.367 251.938 176.377 251.922 176.39 251.909C176.403 251.896 176.418 251.886 176.435 251.879C176.452 251.872 176.47 251.869 176.489 251.869H225.115C225.152 251.869 225.187 251.884 225.213 251.91C225.239 251.936 225.253 251.971 225.253 252.008C225.253 252.045 225.239 252.08 225.213 252.106C225.187 252.132 225.152 252.147 225.115 252.147Z" fill="#CCCCCC"/>
<path d="M164.113 120.092V4.93528C164.114 3.62682 164.635 2.37238 165.56 1.44716C166.485 0.521937 167.74 0.00148833 169.048 0H260.077C261.385 0.001497 262.639 0.521949 263.565 1.44717C264.49 2.37239 265.01 3.62682 265.012 4.93528V120.092C265.01 121.4 264.49 122.655 263.565 123.58C262.639 124.505 261.385 125.025 260.077 125.027H169.048C167.74 125.025 166.485 124.505 165.56 123.58C164.635 122.655 164.114 121.4 164.113 120.092ZM169.048 1.09673C168.03 1.09787 167.055 1.50266 166.335 2.22228C165.616 2.9419 165.211 3.91758 165.21 4.93528V120.092C165.211 121.109 165.616 122.085 166.335 122.805C167.055 123.524 168.03 123.929 169.048 123.93H260.077C261.094 123.929 262.07 123.524 262.79 122.805C263.509 122.085 263.914 121.109 263.915 120.092V4.93528C263.914 3.91758 263.509 2.9419 262.79 2.22228C262.07 1.50266 261.094 1.09787 260.077 1.09673H169.048Z" fill="#E6E6E6"/>
<path d="M219.667 52.8851V29.2399C219.668 28.5857 219.928 27.9584 220.39 27.4958C220.853 27.0332 221.48 26.773 222.135 26.7722H242.172C242.826 26.773 243.453 27.0332 243.916 27.4958C244.378 27.9584 244.639 28.5857 244.639 29.2399V52.8851C244.639 53.5394 244.378 54.1666 243.916 54.6292C243.453 55.0918 242.826 55.352 242.172 55.3528H222.135C221.48 55.352 220.853 55.0918 220.39 54.6292C219.928 54.1666 219.668 53.5394 219.667 52.8851Z" fill="#6C63FF"/>
<path d="M180.733 63.8524V40.2072C180.734 39.553 180.994 38.9257 181.457 38.4631C181.919 38.0005 182.547 37.7403 183.201 37.7396H203.238C203.892 37.7403 204.519 38.0005 204.982 38.4631C205.445 38.9257 205.705 39.553 205.706 40.2072V63.8524C205.705 64.5067 205.445 65.1339 204.982 65.5965C204.519 66.0591 203.892 66.3193 203.238 66.3201H183.201C182.547 66.3193 181.919 66.0591 181.457 65.5965C180.994 65.1339 180.734 64.5066 180.733 63.8524Z" fill="#CCCCCC"/>
<path d="M211.99 97.3026V73.6574C211.991 73.0031 212.251 72.3759 212.713 71.9133C213.176 71.4507 213.803 71.1905 214.457 71.1897H234.495C235.149 71.1905 235.776 71.4507 236.239 71.9133C236.701 72.3759 236.962 73.0031 236.962 73.6574V97.3026C236.962 97.9568 236.701 98.5841 236.239 99.0467C235.776 99.5093 235.149 99.7695 234.495 99.7702H214.457C213.803 99.7695 213.176 99.5093 212.713 99.0467C212.251 98.5841 211.991 97.9568 211.99 97.3026Z" fill="#FF6584"/>
<path d="M331.731 205.407H311.115C310.919 205.407 310.726 205.452 310.55 205.538L305.347 208.143C305.176 208.216 305.03 208.337 304.927 208.493C304.824 208.648 304.77 208.83 304.77 209.016C304.77 209.202 304.824 209.384 304.927 209.539C305.03 209.694 305.176 209.816 305.347 209.888L310.55 212.493C310.726 212.58 310.919 212.625 311.115 212.625H331.731C332.015 212.641 332.294 212.545 332.508 212.357C332.722 212.169 332.853 211.905 332.873 211.621V206.411C332.853 206.127 332.722 205.862 332.508 205.675C332.294 205.487 332.015 205.39 331.731 205.407Z" fill="#3F3D56"/>
<path d="M332.873 206.411V211.621C332.853 211.905 332.722 212.169 332.508 212.357C332.294 212.545 332.015 212.641 331.731 212.625H327.624V205.407H331.731C332.015 205.39 332.294 205.487 332.508 205.675C332.722 205.862 332.853 206.127 332.873 206.411Z" fill="#6C63FF"/>
<path d="M331.576 166.431C332.51 166.028 333.518 165.827 334.535 165.841C335.552 165.854 336.555 166.083 337.477 166.511C338.4 166.94 339.221 167.558 339.888 168.326C340.555 169.094 341.052 169.994 341.346 170.968C341.438 171.277 341.508 171.591 341.557 171.909L370.387 186.206L377.059 181.784L385.361 191.342L375.173 199.616C373.948 200.603 372.437 201.169 370.865 201.23C369.293 201.29 367.743 200.842 366.445 199.952L337.194 179.724C336.977 179.816 336.754 179.897 336.528 179.967C335.555 180.261 334.53 180.347 333.521 180.218C332.512 180.088 331.542 179.747 330.674 179.217C329.806 178.687 329.06 177.979 328.484 177.14C327.909 176.301 327.517 175.35 327.335 174.35C327.281 174.059 327.246 173.766 327.229 173.471C327.147 171.994 327.521 170.527 328.298 169.269C329.075 168.01 330.219 167.02 331.576 166.431Z" fill="#FFB8B8"/>
<path d="M391.624 254.454H360.122C360.122 255.36 327.655 256.094 327.655 256.094C327.146 256.478 326.681 256.918 326.271 257.407C325.038 258.878 324.364 260.737 324.368 262.656V263.968C324.369 266.143 325.233 268.229 326.771 269.767C328.309 271.305 330.395 272.17 332.57 272.17H391.624C393.799 272.169 395.884 271.304 397.422 269.766C398.96 268.228 399.825 266.143 399.826 263.968V262.656C399.823 260.482 398.958 258.397 397.421 256.86C395.883 255.322 393.799 254.457 391.624 254.454Z" fill="#3F3D56"/>
<path d="M357.357 326.962H365.887V271.845H357.357V326.962Z" fill="#3F3D56"/>
<path d="M333.079 326.663C333.079 327.584 346.005 327.019 361.95 327.019C377.895 327.019 390.821 327.584 390.821 326.663C390.821 325.741 377.895 318.432 361.95 318.432C346.005 318.432 333.079 325.741 333.079 326.663Z" fill="#3F3D56"/>
<path d="M340.78 320.202L332.736 320.202L328.908 299.338L340.781 299.338L340.78 320.202Z" fill="#FFB8B8"/>
<path d="M342.831 328L316.893 327.999V327.671C316.893 326.345 317.154 325.032 317.661 323.807C318.169 322.583 318.912 321.47 319.85 320.532C320.788 319.595 321.9 318.851 323.125 318.344C324.35 317.836 325.663 317.575 326.989 317.575H326.99L342.832 317.576L342.831 328Z" fill="#2F2E41"/>
<path d="M328.748 307.264L312.711 271.301C311.372 268.27 311.224 264.846 312.296 261.711C313.368 258.575 315.582 255.959 318.497 254.383L353.283 235.73L369.156 234.379L383.798 233.049L383.904 233.227C384.039 233.455 387.187 238.893 385.059 244.856C383.445 249.378 379.246 252.911 372.579 255.355C357.019 261.061 339.043 265.937 332.037 267.769C331.728 267.848 331.438 267.992 331.188 268.191C330.938 268.39 330.733 268.64 330.587 268.923C330.439 269.204 330.352 269.512 330.33 269.828C330.308 270.144 330.351 270.462 330.458 270.76L345.357 304.234C345.513 304.658 345.569 305.113 345.521 305.563C345.473 306.012 345.322 306.445 345.081 306.827C344.839 307.209 344.513 307.531 344.128 307.767C343.742 308.004 343.308 308.148 342.857 308.19L331.725 309.001C331.63 309.01 331.536 309.014 331.442 309.014C330.872 309.014 330.314 308.848 329.836 308.538C329.358 308.227 328.98 307.785 328.748 307.264Z" fill="#2F2E41"/>
<path d="M344.717 320.202L336.673 320.202L332.845 299.338L344.718 299.338L344.717 320.202Z" fill="#FFB8B8"/>
<path d="M346.768 328L320.83 327.999V327.671C320.83 326.345 321.091 325.032 321.598 323.807C322.106 322.583 322.849 321.47 323.787 320.532C324.724 319.595 325.837 318.851 327.062 318.344C328.287 317.836 329.6 317.575 330.926 317.575H330.927L346.769 317.576L346.768 328Z" fill="#2F2E41"/>
<path d="M333.341 309.233L317.304 273.27C315.965 270.239 315.817 266.815 316.889 263.679C317.962 260.544 320.176 257.928 323.09 256.351L357.876 237.698L373.749 236.348L388.391 235.017L388.497 235.196C388.632 235.424 391.78 240.862 389.652 246.824C388.038 251.347 383.839 254.879 377.172 257.324C361.612 263.03 343.637 267.906 336.631 269.737C336.321 269.816 336.032 269.96 335.782 270.159C335.531 270.358 335.326 270.608 335.18 270.892C335.033 271.173 334.945 271.481 334.923 271.797C334.901 272.113 334.944 272.43 335.051 272.728L349.95 306.202C350.106 306.627 350.162 307.081 350.114 307.531C350.066 307.981 349.915 308.413 349.674 308.796C349.432 309.178 349.106 309.499 348.721 309.736C348.335 309.972 347.901 310.117 347.451 310.158L336.318 310.969C336.223 310.978 336.129 310.983 336.035 310.983C335.465 310.982 334.907 310.817 334.429 310.506C333.951 310.196 333.573 309.753 333.341 309.233Z" fill="#2F2E41"/>
<path d="M325.348 199.371C318.609 190.407 313.281 180.464 309.55 169.888C309.334 169.256 309.35 168.567 309.594 167.945C309.838 167.322 310.295 166.807 310.884 166.49L333.945 154.133C334.318 153.932 334.732 153.818 335.155 153.801C335.579 153.784 336.001 153.864 336.389 154.034C336.784 154.206 337.135 154.466 337.415 154.794C337.695 155.122 337.897 155.509 338.004 155.927C340.688 166.118 345.734 175.534 352.732 183.414C353.02 183.734 353.231 184.117 353.349 184.531C353.467 184.946 353.489 185.382 353.413 185.806C353.34 186.224 353.173 186.619 352.924 186.963C352.675 187.306 352.351 187.588 351.977 187.787L328.916 200.143C328.326 200.458 327.643 200.553 326.99 200.411C326.337 200.27 325.755 199.901 325.348 199.371Z" fill="#CCCCCC"/>
<path d="M326.921 198.188C327.045 198.343 327.22 198.45 327.414 198.49C327.608 198.53 327.811 198.501 327.986 198.408L351.047 186.051C351.159 185.993 351.256 185.91 351.33 185.807C351.404 185.705 351.454 185.587 351.475 185.463C351.499 185.331 351.492 185.196 351.455 185.068C351.418 184.939 351.352 184.821 351.262 184.723C344.057 176.611 338.863 166.917 336.1 156.426C336.068 156.296 336.006 156.176 335.92 156.074C335.834 155.972 335.725 155.891 335.603 155.839C335.487 155.787 335.361 155.763 335.235 155.768C335.108 155.773 334.985 155.808 334.874 155.869L311.813 168.225C311.639 168.32 311.502 168.472 311.428 168.656C311.354 168.84 311.346 169.045 311.407 169.234C315.071 179.62 320.303 189.385 326.921 198.188Z" fill="white"/>
<path d="M401.96 196.075L383.899 202.938L379.49 190.69C378.904 189.063 378.913 187.282 379.513 185.661C380.114 184.04 381.268 182.684 382.772 181.832C384.293 180.97 386.073 180.68 387.789 181.015C389.505 181.35 391.045 182.288 392.13 183.659L401.96 196.075Z" fill="#6C63FF"/>
<path d="M356.022 244.605C355.642 244.336 355.323 243.989 355.088 243.587C354.852 243.186 354.704 242.739 354.655 242.276C352.342 220.682 353.953 203.783 359.58 190.613C360.571 188.342 362.064 186.324 363.947 184.713C365.83 183.101 368.053 181.938 370.451 181.309L385.05 180.572L385.125 180.609C388.42 182.222 391.107 184.855 392.787 188.115C394.468 191.376 395.053 195.092 394.456 198.711C389.76 211.088 385.828 223.975 388.827 234.371C388.952 234.806 388.989 235.261 388.935 235.71C388.88 236.159 388.735 236.593 388.509 236.985C388.29 237.363 387.995 237.693 387.644 237.954C387.292 238.214 386.891 238.4 386.465 238.5L358.658 245.115C358.207 245.222 357.739 245.232 357.285 245.144C356.83 245.056 356.4 244.872 356.022 244.605Z" fill="#6C63FF"/>
<path d="M380.178 175.119C389.078 175.119 396.294 167.904 396.294 159.003C396.294 150.103 389.078 142.887 380.178 142.887C371.277 142.887 364.062 150.103 364.062 159.003C364.062 167.904 371.277 175.119 380.178 175.119Z" fill="#FFB8B8"/>
<path d="M335.458 171.768L322.898 177.312C322.421 177.522 321.879 177.534 321.393 177.346C320.906 177.157 320.514 176.783 320.303 176.306L319.992 175.602C319.782 175.124 319.77 174.583 319.958 174.096C320.147 173.61 320.521 173.218 320.998 173.006L333.558 167.462C334.036 167.252 334.577 167.24 335.064 167.428C335.55 167.617 335.942 167.991 336.154 168.468L336.464 169.172C336.675 169.649 336.687 170.191 336.498 170.678C336.31 171.164 335.936 171.556 335.458 171.768Z" fill="#CCCCCC"/>
<path d="M340.051 180.298L327.492 185.842C327.014 186.052 326.472 186.064 325.986 185.876C325.499 185.687 325.107 185.313 324.896 184.836L324.585 184.132C324.375 183.655 324.363 183.113 324.551 182.626C324.74 182.14 325.114 181.748 325.591 181.536L338.151 175.992C338.629 175.782 339.17 175.77 339.657 175.958C340.143 176.147 340.535 176.521 340.747 176.998L341.057 177.702C341.268 178.18 341.28 178.721 341.091 179.208C340.903 179.694 340.529 180.086 340.051 180.298Z" fill="#CCCCCC"/>
<path d="M349.738 213.616L321.736 191.525C321.513 191.604 321.286 191.671 321.056 191.726C320.068 191.957 319.042 191.978 318.045 191.787C317.049 191.595 316.103 191.197 315.271 190.616C314.432 190.035 313.728 189.282 313.204 188.407C312.681 187.532 312.35 186.555 312.235 185.542C312.047 183.922 312.412 182.286 313.271 180.9C314.129 179.514 315.431 178.459 316.965 177.905C317.922 177.562 318.942 177.425 319.956 177.502C320.97 177.58 321.956 177.871 322.85 178.357C323.743 178.843 324.524 179.511 325.141 180.32C325.759 181.128 326.198 182.058 326.431 183.048C326.503 183.362 326.553 183.68 326.581 184.001L354.456 200.081L361.393 196.088L369.077 206.148L358.307 213.825C357.046 214.716 355.531 215.177 353.988 215.139C352.444 215.102 350.954 214.567 349.738 213.616Z" fill="#FFB8B8"/>
<path d="M372.494 209.281L356.517 198.417L364.026 187.782C365.023 186.37 366.487 185.356 368.159 184.919C369.832 184.482 371.605 184.65 373.165 185.394C374.744 186.146 376.001 187.438 376.71 189.037C377.42 190.635 377.534 192.434 377.033 194.109L372.494 209.281Z" fill="#6C63FF"/>
<path d="M374.269 156.603C370.127 159.438 364.688 162.352 360.457 159.333C357.68 157.351 356.804 153.68 357.931 150.459C359.957 144.666 365.522 142.115 370.844 140.16C377.763 137.619 385.297 135.597 392.439 137.417C399.582 139.237 405.894 146.153 404.605 153.41C403.568 159.246 398.063 164.102 398.845 169.978C399.631 175.891 406.281 179.004 412.153 180.061C418.024 181.117 424.594 181.457 428.813 185.674C434.196 191.054 432.851 200.67 427.787 206.35C422.722 212.03 415.079 214.604 407.673 216.354C397.86 218.673 387.247 219.892 377.928 216.044C368.608 212.195 361.356 201.835 364.056 192.12C365.196 188.017 367.882 184.549 370.478 181.172C373.075 177.796 375.704 174.266 376.694 170.123C377.519 166.671 376.908 162.664 374.619 160.074C374.203 159.621 373.941 159.048 373.871 158.436C373.801 157.825 373.926 157.207 374.229 156.671L374.269 156.603Z" fill="#2F2E41"/>
<path d="M71.5689 234.905C67.4162 236.365 62.9574 236.73 58.6223 235.967C54.2872 235.203 50.2218 233.336 46.8178 230.545C38.1486 223.269 35.4305 211.281 33.2189 200.181C31.0384 189.237 28.858 178.293 26.6775 167.35L40.3727 176.78C50.2214 183.561 60.292 190.56 67.1113 200.382C73.9305 210.205 76.9071 223.614 71.4281 234.242" fill="#E6E6E6"/>
<path d="M70.3984 274.654C71.7845 264.557 73.2098 254.331 72.2375 244.126C71.374 235.063 68.609 226.211 62.9799 218.953C59.9919 215.108 56.3561 211.813 52.236 209.217C51.1616 208.539 50.1727 210.242 51.2424 210.917C58.3715 215.423 63.8855 222.076 66.9896 229.917C70.4179 238.637 70.9685 248.143 70.3777 257.406C70.0204 263.008 69.2632 268.573 68.5002 274.131C68.44 274.382 68.4776 274.647 68.6052 274.872C68.7328 275.097 68.941 275.264 69.1876 275.342C69.4393 275.409 69.7076 275.375 69.9342 275.247C70.1609 275.118 70.3277 274.905 70.3984 274.654Z" fill="#F2F2F2"/>
<path d="M57.0474 256.788C55.2663 259.495 52.8181 261.698 49.9387 263.184C47.0593 264.67 43.8456 265.389 40.6074 265.273C32.2852 264.878 25.3471 259.07 19.1016 253.555L0.628479 237.245L12.8546 236.66C21.6469 236.239 30.6661 235.847 39.0405 238.558C47.4148 241.269 55.1381 247.795 56.6694 256.463" fill="#E6E6E6"/>
<path d="M74.3157 280.458C67.644 268.653 59.9054 255.533 46.0779 251.34C42.2332 250.178 38.2017 249.761 34.2007 250.113C32.9397 250.222 33.2546 252.166 34.5133 252.057C41.2199 251.501 47.9136 253.271 53.4675 257.072C58.8119 260.71 62.973 265.767 66.495 271.13C68.6523 274.416 70.5847 277.84 72.5175 281.26C73.1352 282.353 74.9405 281.564 74.3157 280.458Z" fill="#F2F2F2"/>
<path d="M85.0056 292.884C84.7808 290.279 83.8456 287.786 82.3019 285.676C80.7581 283.566 78.665 281.92 76.2506 280.918V274.093H64.8039V281.133C62.5082 282.185 60.5326 283.827 59.0783 285.891C57.6241 287.955 56.7433 290.368 56.5256 292.884L53.834 324.172H87.6972L85.0056 292.884Z" fill="#F2F2F2"/>
</g>
<defs>
<clipPath id="clip0_1_4">
<rect width="454.064" height="328" fill="white"/>
</clipPath>
</defs>
</svg>
